<?xml version="1.0" encoding="UTF-8"?>
<svg version="1.1" xmlns="http://www.w3.org/2000/svg" width="1024" height="1024">
<path d="M0 0 C337.92 0 675.84 0 1024 0 C1024 337.92 1024 675.84 1024 1024 C686.08 1024 348.16 1024 0 1024 C0 686.08 0 348.16 0 0 Z " fill="#091723" transform="translate(0,0)"/>
<path d="M0 0 C2.84110312 2.22240378 5.13760195 4.84695998 7.5 7.5625 C8.43779297 8.59987305 8.43779297 8.59987305 9.39453125 9.65820312 C11.28274601 11.75556796 13.14468995 13.87350293 15 16 C15.6182666 16.70640625 16.2365332 17.4128125 16.87353516 18.140625 C18.06047785 19.49713093 19.24686644 20.85412196 20.43261719 22.21166992 C22.39447122 24.45007815 24.38006441 26.66604833 26.375 28.875 C29.37951464 32.20432704 32.37970059 35.53738066 35.375 38.875 C38.76777191 42.64738275 42.19038876 46.39081108 45.625 50.125 C49.18253099 53.99367822 52.68289575 57.90334125 56.125 61.875 C58.54550142 64.61823494 61.02204178 67.30881243 63.5 70 C67.14359853 73.95797711 70.74053836 77.94819944 74.26171875 82.015625 C76.28967314 84.33068305 78.36425613 86.60043602 80.4375 88.875 C81.96175718 90.58027912 83.48254637 92.28866388 85 94 C85.78761719 94.87398438 86.57523438 95.74796875 87.38671875 96.6484375 C88.12535156 97.50695312 88.86398437 98.36546875 89.625 99.25 C90.29789063 100.01828125 90.97078125 100.7865625 91.6640625 101.578125 C93 104 93 104 92.96484375 107.01953125 C91.84631153 110.47475427 90.57691612 111.9701213 87.9375 114.4375 C87.12925781 115.200625 86.32101562 115.96375 85.48828125 116.75 C84.66714844 117.4925 83.84601563 118.235 83 119 C82.25105469 119.680625 81.50210938 120.36125 80.73046875 121.0625 C72.95431778 127.98745819 72.95431778 127.98745819 68.73046875 128.04296875 C63.73263704 126.6456692 61.62950401 124.16144051 58.3125 120.3125 C57.70728516 119.63767578 57.10207031 118.96285156 56.47851562 118.26757812 C54.63118395 116.19585851 52.81121386 114.10332899 51 112 C50.47712402 111.39333496 49.95424805 110.78666992 49.41552734 110.16162109 C47.45148034 107.87482232 45.49326367 105.58334727 43.546875 103.28149414 C38.64799515 97.51117893 33.47348314 92.01304808 28.28515625 86.50390625 C24.68342171 82.67699815 21.16820478 78.77898168 17.671875 74.85546875 C16.48387024 73.53700552 15.25493039 72.25493039 14 71 C13.67 95.09 13.34 119.18 13 144 C1.78 144 -9.44 144 -21 144 C-21.33 119.91 -21.66 95.82 -22 71 C-33.65207546 83.3619849 -33.65207546 83.3619849 -45 96 C-46.99209424 98.17504167 -48.98915271 100.34261863 -51 102.5 C-54.25188378 106.005199 -57.48980313 109.51432304 -60.625 113.125 C-61.15222656 113.72570312 -61.67945313 114.32640625 -62.22265625 114.9453125 C-63.64558784 116.59028396 -65.04382151 118.25660695 -66.43359375 119.9296875 C-67.30933442 120.95360544 -68.18563479 121.97704494 -69.0625 123 C-69.85785156 123.94875 -70.65320313 124.8975 -71.47265625 125.875 C-74 128 -74 128 -77.07421875 128.49609375 C-80.31649479 127.94633533 -81.42774728 127.32823772 -83.75 125.0625 C-84.75353516 124.11117187 -84.75353516 124.11117187 -85.77734375 123.140625 C-86.51082031 122.43421875 -87.24429687 121.7278125 -88 121 C-89.76799383 119.43428778 -91.53888187 117.87183821 -93.3125 116.3125 C-96.23090726 113.73312278 -98.89754751 111.29902513 -101 108 C-101.14357532 104.76955526 -100.7072989 102.84438774 -98.609375 100.33984375 C-97.40507842 99.14910907 -96.18074768 97.9784337 -94.94140625 96.82421875 C-90.72844625 92.86556217 -87.11148845 88.31553609 -83.3828125 83.90625 C-77.4322191 76.88930704 -71.32085573 70.08344298 -65.00170898 63.39624023 C-60.91953302 59.0518284 -57.1336828 54.5466925 -53.4140625 49.88671875 C-49.22465813 44.87705883 -44.69472756 40.18229774 -40.21875 35.4296875 C-36.71064995 31.70333237 -33.32002309 27.89464247 -30 24 C-7.73198238 -2.082292 -7.73198238 -2.082292 0 0 Z " fill="#EEEBE5" transform="translate(516,165)"/>
<path d="M0 0 C18.00623866 8.90098458 28.16395588 23.43566292 35 42 C41.08302506 60.2199698 36.93162673 83.20543105 28.91845703 100.17529297 C23.55141619 110.83804236 16.3032837 119.51929571 8 128 C7.19820312 128.85207031 6.39640625 129.70414063 5.5703125 130.58203125 C-0.47368144 136.87372986 -7.06182866 142.17724031 -13.97851562 147.45361328 C-17.75373273 150.34156318 -21.49950931 153.26755839 -25.25 156.1875 C-26.02359863 156.78957275 -26.79719727 157.39164551 -27.59423828 158.01196289 C-29.07577236 159.16520429 -30.55706672 160.31875374 -32.03808594 161.47265625 C-33.67194494 162.7446102 -35.30831549 164.01333719 -36.9453125 165.28125 C-51.56596026 176.75211191 -62.96743576 188.93814356 -72.25 205.10546875 C-73.11625 206.53826172 -73.11625 206.53826172 -74 208 C-74.33 208 -74.66 208 -75 208 C-79.775222 178.62385752 -77.26242344 151.00888681 -60 126 C-53.85487917 117.49301534 -47.15108259 109.68619762 -40 102 C-16.09621524 75.80976627 0.38969443 46.1050687 0.0625 9.9375 C0.05798828 8.97650391 0.05347656 8.01550781 0.04882812 7.02539062 C0.03717706 4.68352578 0.02082025 2.34179819 0 0 Z " fill="#EDEBE5" transform="translate(559,447)"/>
<path d="M0 0 C58.70280612 0 58.70280612 0 75.8125 16.546875 C84.4643118 26.24926394 88.58861709 36.32532443 88.4375 49.25 C88.42920166 50.17022949 88.42090332 51.09045898 88.41235352 52.03857422 C88.06369107 66.17615409 83.19337456 78.31819583 72.9375 88.25 C51.93942668 105.55298089 26.34433685 102 0 102 C0 68.34 0 34.68 0 0 Z " fill="#EEEBE6" transform="translate(627,694)"/>
<path d="M0 0 C0.33434439 13.52423069 -4.5381234 23.98887188 -13.66015625 33.6875 C-19.3512024 39.31203977 -25.76041624 43.0271377 -32.70996094 46.89672852 C-38.28621057 50.05415627 -43.19320884 53.75718253 -48 58 C-48.91652344 58.77537109 -48.91652344 58.77537109 -49.8515625 59.56640625 C-65.84703315 74.13762267 -75.12414485 99.21603505 -76.109375 120.34570312 C-76.64091865 137.66073744 -74.68675554 154.11465963 -71 171 C-84.43644846 166.44163116 -94.99801608 151.18660183 -101.11572266 138.93847656 C-103.74518436 133.17427836 -105.41133561 127.11667948 -107 121 C-107.24621094 120.11441406 -107.49242187 119.22882813 -107.74609375 118.31640625 C-113.55020046 93.29870492 -106.93861294 65.32618875 -94.03515625 43.65576172 C-91.39238633 39.42857644 -88.34666796 35.68374243 -85 32 C-84.20078125 31.10796875 -83.4015625 30.2159375 -82.578125 29.296875 C-71.89323616 17.97974422 -59.53219625 10.44053616 -45 5 C-44.19046875 4.68417969 -43.3809375 4.36835938 -42.546875 4.04296875 C-28.76321034 -0.9895563 -14.44649491 -0.22780742 0 0 Z " fill="#EEEBE5" transform="translate(529,439)"/>
<path d="M0 0 C9.41032104 6.889391 16.52418938 16.65868633 18.90234375 28.203125 C20.5335759 40.26977376 17.88464065 51.38604344 10.75 61.3125 C9.9765625 62.3025 9.9765625 62.3025 9.1875 63.3125 C8.57390625 64.14523437 7.9603125 64.97796875 7.328125 65.8359375 C0.09061367 74.20926266 -11.17388721 78.52286446 -21.94921875 79.5078125 C-33.62328696 80.07177715 -44.04322295 75.87542148 -52.8125 68.3125 C-62.10819003 59.56254519 -66.72227807 48.68352088 -67.1875 36.0625 C-66.95783269 23.66046544 -61.86626103 13.65489845 -53.625 4.625 C-38.91191411 -9.40299764 -17.04939863 -10.48070909 0 0 Z " fill="#EDEBE5" transform="translate(535.8125,338.6875)"/>
<path d="M0 0 C18 0 18 0 22.36328125 3.5234375 C23.89941406 5.84106445 23.89941406 5.84106445 25.3125 8.375 C26.43804812 10.12678674 27.56436922 11.87807705 28.69140625 13.62890625 C29.23684082 14.52496582 29.78227539 15.42102539 30.34423828 16.34423828 C32.93066627 20.49274368 35.84508289 24.38397387 38.75 28.3125 C39.82797668 29.80291433 40.9035514 31.29506927 41.9765625 32.7890625 C42.48735352 33.4996582 42.99814453 34.21025391 43.52441406 34.94238281 C45.27015552 37.37671587 47.01064101 39.81473568 48.74755859 42.25537109 C54.43073739 50.22713235 60.2070985 58.10058886 66 66 C66.33 44.22 66.66 22.44 67 0 C73.27 0 79.54 0 86 0 C86 33.66 86 67.32 86 102 C69 102 69 102 64.734375 98.6953125 C63.18994141 96.51635742 63.18994141 96.51635742 61.75 94.125 C61.19103027 93.31071533 60.63206055 92.49643066 60.05615234 91.6574707 C58.89632063 89.96274613 57.75934096 88.25216028 56.64550781 86.52685547 C54.60424825 83.39228033 52.42194964 80.37904787 50.21411133 77.3605957 C48.60711361 75.16304051 47.02410218 72.94947653 45.44140625 70.734375 C40.94889136 64.50115928 36.25595889 58.4194721 31.55517578 52.3425293 C30.91950684 51.51664307 30.28383789 50.69075684 29.62890625 49.83984375 C28.7946814 48.76271118 28.7946814 48.76271118 27.94360352 47.66381836 C25.17100792 43.86381955 22.60928975 39.91393463 20 36 C19.67 57.78 19.34 79.56 19 102 C12.73 102 6.46 102 0 102 C0 68.34 0 34.68 0 0 Z " fill="#ECEAE3" transform="translate(512,694)"/>
<path d="M0 0 C7.92 0 15.84 0 24 0 C25.74410156 4.7953125 25.74410156 4.7953125 27.5234375 9.6875 C29.13945985 14.12542497 30.75708805 18.56276359 32.375 23 C33.00627304 24.73174469 33.00627304 24.73174469 33.65029907 26.49847412 C40.82818125 46.17708212 48.13765008 65.80370435 55.56201172 85.390625 C56.284837 87.30468513 57.00765635 89.2187475 57.73046875 91.1328125 C58.063918 92.00745148 58.39736725 92.88209045 58.74092102 93.78323364 C59.04064316 94.57809174 59.3403653 95.37294983 59.64916992 96.19189453 C60.04286018 97.22904099 60.04286018 97.22904099 60.44450378 98.28713989 C61 100 61 100 61 102 C53.74 102 46.48 102 39 102 C37.845 98.90625 36.69 95.8125 35.5 92.625 C35.13455078 91.65127441 34.76910156 90.67754883 34.39257812 89.67431641 C33.9662207 88.52455322 33.9662207 88.52455322 33.53125 87.3515625 C33.23798828 86.56604004 32.94472656 85.78051758 32.64257812 84.97119141 C32 83 32 83 32 81 C18.8 81.33 5.6 81.66 -8 82 C-10.26171582 88.20677779 -10.26171582 88.20677779 -12.51733398 94.41577148 C-12.79907471 95.18477783 -13.08081543 95.95378418 -13.37109375 96.74609375 C-13.65911865 97.53685303 -13.94714355 98.3276123 -14.24389648 99.14233398 C-15 101 -15 101 -16 102 C-17.56172745 102.08685603 -19.12729344 102.10702219 -20.69140625 102.09765625 C-21.63564453 102.09443359 -22.57988281 102.09121094 -23.55273438 102.08789062 C-24.54595703 102.07951172 -25.53917969 102.07113281 -26.5625 102.0625 C-27.55958984 102.05798828 -28.55667969 102.05347656 -29.58398438 102.04882812 C-32.05604849 102.03700007 -34.52799518 102.02051849 -37 102 C-36.27009438 97.48635604 -34.76555971 93.32428922 -33.18359375 89.0546875 C-32.75124672 87.87469681 -32.75124672 87.87469681 -32.31016541 86.67086792 C-31.35630574 84.07087063 -30.39702631 81.47291083 -29.4375 78.875 C-28.76817614 77.05509237 -28.09907165 75.23510404 -27.43017578 73.41503906 C-22.43970153 59.8497329 -17.41202359 46.29808126 -12.375 32.75 C-12.04015594 31.84924744 -11.70531189 30.94849487 -11.36032104 30.02044678 C-7.6299211 19.99118609 -3.86413441 9.97864594 0 0 Z " fill="#ECEAE4" transform="translate(816,694)"/>
<path d="M0 0 C19.8 0 39.6 0 60 0 C60 6.27 60 12.54 60 19 C47.13 19 34.26 19 21 19 C21 26.59 21 34.18 21 42 C32.22 42 43.44 42 55 42 C55 47.94 55 53.88 55 60 C43.78 60 32.56 60 21 60 C21 67.59 21 75.18 21 83 C34.2 83 47.4 83 61 83 C61 89.27 61 95.54 61 102 C40.87 102 20.74 102 0 102 C0 68.34 0 34.68 0 0 Z " fill="#ECE9E3" transform="translate(427,694)"/>
<path d="M0 0 C19.47 0 38.94 0 59 0 C59 6.27 59 12.54 59 19 C46.13 19 33.26 19 20 19 C20 26.59 20 34.18 20 42 C31.22 42 42.44 42 54 42 C54 47.94 54 53.88 54 60 C42.78 60 31.56 60 20 60 C20 67.59 20 75.18 20 83 C33.53 83 47.06 83 61 83 C61 89.27 61 95.54 61 102 C40.87 102 20.74 102 0 102 C0 68.34 0 34.68 0 0 Z " fill="#EDEAE4" transform="translate(152,694)"/>
<path d="M0 0 C2.28059226 1.88341046 4.06758996 3.74552162 6 6 C4.41332422 9.90285767 1.86649519 12.33520982 -1.125 15.25 C-2.49011719 16.58804688 -2.49011719 16.58804688 -3.8828125 17.953125 C-4.93082031 18.96632813 -4.93082031 18.96632813 -6 20 C-8.15292894 18.92851916 -10.29900645 17.84618418 -12.4375 16.74609375 C-13.7059375 16.09833984 -13.7059375 16.09833984 -15 15.4375 C-16.2684375 14.78587891 -16.2684375 14.78587891 -17.5625 14.12109375 C-24.54985697 10.90735745 -33.2332479 10.82773208 -40.63671875 12.6484375 C-49.76431361 16.37593697 -56.12769576 23.00894165 -60 32 C-62.8428197 40.52845909 -61.7835298 51.43618273 -58.31640625 59.56640625 C-53.74513061 68.01716211 -47.15207303 72.81965929 -37.98828125 75.61328125 C-25.78152832 77.9874827 -16.0578465 73.46575846 -6 67 C-2.04 70.96 1.92 74.92 6 79 C2.40999904 86.18000192 -3.72084417 89.98377521 -11 93 C-12.00353516 93.45052734 -12.00353516 93.45052734 -13.02734375 93.91015625 C-24.51178058 98.24961832 -39.70944164 97.45836152 -51.09765625 93.33984375 C-64.75983289 87.03280931 -75.63299974 77.33491216 -81.2578125 63.1484375 C-81.50273437 62.43945312 -81.74765625 61.73046875 -82 61 C-82.22429687 60.35289062 -82.44859375 59.70578125 -82.6796875 59.0390625 C-86.83861218 44.16948247 -83.99067946 28.89902213 -76.6875 15.625 C-68.85380934 3.05811098 -57.00237965 -4.78065509 -42.609375 -8.37890625 C-27.34228507 -11.00603536 -13.15211255 -8.08913117 0 0 Z " fill="#EDEBE5" transform="translate(313,701)"/>
<path d="M0 0 C1.828125 1.46484375 1.828125 1.46484375 2.828125 4.46484375 C1.51071868 6.65952968 0.19621332 8.57785395 -1.359375 10.58984375 C-1.95975586 11.41548828 -1.95975586 11.41548828 -2.57226562 12.2578125 C-4.23904573 14.45677361 -5.68060753 16.21390163 -8.16015625 17.48046875 C-10.98375416 17.45853789 -12.71178513 16.44739334 -15.171875 15.08984375 C-20.72202696 12.06094985 -24.7784719 11.03139269 -31.171875 11.46484375 C-35.5176975 12.85565554 -35.5176975 12.85565554 -39.171875 15.46484375 C-39.97681249 20.51933196 -39.97681249 20.51933196 -38.02685547 24.99194336 C-31.6405344 30.43762101 -24.12785146 33.4315394 -16.5078125 36.7890625 C-7.25021848 41.02653609 0.89268449 46.01691224 5.171875 55.60546875 C7.87300151 63.25866053 7.8683257 71.75091076 4.9140625 79.33984375 C0.54875887 87.88202065 -6.42545372 92.02108932 -15.171875 95.46484375 C-28.40158336 99.1835863 -43.01310424 96.76712056 -54.921875 90.58984375 C-59.0812876 88.22989334 -62.6548325 85.69672064 -66.171875 82.46484375 C-65.60919922 81.72041016 -65.60919922 81.72041016 -65.03515625 80.9609375 C-61.68023581 76.50742851 -58.39476264 72.01480277 -55.171875 67.46484375 C-54.48222656 67.86316406 -53.79257812 68.26148438 -53.08203125 68.671875 C-43.04503433 74.33059343 -34.89911851 77.71597215 -23.171875 76.46484375 C-18.9601541 74.93991032 -17.65201292 74.18505064 -15.171875 70.46484375 C-15.171875 66.25756355 -15.47200775 64.18643101 -18.4375 61.12890625 C-24.31464897 56.50389122 -31.60043608 53.75044051 -38.34375 50.6328125 C-47.42722491 46.26980082 -56.30839798 41.06059279 -60.796875 31.65234375 C-63.26835695 24.02504299 -63.47943208 16.50621002 -60.109375 9.15234375 C-54.69879816 -0.25211293 -47.51799295 -4.88264508 -37.2421875 -8.1484375 C-23.77672178 -10.66368487 -11.45043248 -6.96260169 0 0 Z " fill="#EEEBE6" transform="translate(398.171875,700.53515625)"/>
<path d="M0 0 C29.23220974 0 29.23220974 0 39.125 9.7109375 C45.89524453 17.97627769 47.74835841 26.5645577 47 37 C45.27804568 46.93771944 40.2898375 53.61114065 32.41796875 59.67578125 C21.09568248 65.87651638 13.81264647 64 0 64 C0 42.88 0 21.76 0 0 Z " fill="#0A1722" transform="translate(647,713)"/>
<path d="M0 0 C6.6 0 13.2 0 20 0 C20 33.66 20 67.32 20 102 C13.4 102 6.8 102 0 102 C0 68.34 0 34.68 0 0 Z " fill="#EEECE6" transform="translate(739,694)"/>
<path d="M0 0 C19.8 0 39.6 0 60 0 C60 6.27 60 12.54 60 19 C47.13 19 34.26 19 21 19 C21 26.59 21 34.18 21 42 C32.22 42 43.44 42 55 42 C55 47.94 55 53.88 55 60 C43.78 60 32.56 60 21 60 C21 67.59 21 75.18 21 83 C34.2 83 47.4 83 61 83 C61 89.27 61 95.54 61 102 C40.87 102 20.74 102 0 102 C0 68.34 0 34.68 0 0 Z " fill="#ECE9E3" transform="translate(427,694)"/>
</svg>
